<?xml version="1.0" encoding="UTF-8"?>
<svg version="1.1" xmlns="http://www.w3.org/2000/svg" width="512" height="512">
<path d="M0 0 C1.93558276 0.91952882 3.85405775 1.87629239 5.75 2.875 C6.52085937 3.27460938 7.29171875 3.67421875 8.0859375 4.0859375 C14.49329043 7.69417379 20.31930377 12.16446928 26.24291992 16.49975586 C38.52855991 25.42782964 51.38724302 33.53585587 64.26074219 41.58374023 C120.2329998 76.59241066 120.2329998 76.59241066 125.75 90.875 C126.05078125 93.2421875 126.05078125 93.2421875 126.0625 95.75 C126.07925781 96.57242188 126.09601563 97.39484375 126.11328125 98.2421875 C124.63070157 108.98690475 113.99249133 117.13314315 105.95532227 123.41674805 C98.21419139 129.23293721 89.86219295 134.15221932 81.625 139.22265625 C70.49622614 146.09388534 59.76478919 153.44961495 49.75 161.875 C49.2432373 162.29297852 48.73647461 162.71095703 48.21435547 163.14160156 C40.34181506 169.63743408 32.96791435 176.430345 25.98754883 183.88696289 C21.353582 188.70682685 17.47738535 191.3472707 10.6875 192.30859375 C4.13326112 192.31730949 -0.0432673 191.99699672 -5.25 187.875 C-8.42770714 184.45285385 -9.52522318 181.76279583 -9.75 177.1875 C-9.13741978 164.3998879 -1.9460872 154.07061342 7.125 145.5 C11.666387 141.61135058 16.43070794 138.03386928 21.25 134.5 C21.91821777 134.00709473 22.58643555 133.51418945 23.27490234 133.00634766 C28.70903519 129.10597235 34.37121848 125.62127619 40.08398438 122.14990234 C40.9183905 121.64150314 41.75279663 121.13310394 42.61248779 120.60929871 C44.65764716 119.36341279 46.70349861 118.11867982 48.75 116.875 C32.83027579 116.85134708 16.91055653 116.83386544 0.99081898 116.82318783 C-6.40562222 116.81809213 -13.80205225 116.81116225 -21.19848633 116.79956055 C-29.05010863 116.78742504 -36.90172391 116.77998926 -44.7533555 116.77794313 C-46.15533405 116.77754338 -47.55731256 116.7769809 -48.95929098 116.77625608 C-67.59251859 116.76731466 -86.21236668 116.86422321 -104.83036804 117.69822693 C-106.13585098 117.74955276 -107.44133392 117.8008786 -108.78637695 117.85375977 C-109.88093704 117.90573013 -110.97549713 117.9577005 -112.10322571 118.01124573 C-117.41121699 117.7814259 -121.17855328 116.85327744 -125.125 113.25 C-128.24113616 108.30084257 -128.84786418 104.75637322 -127.6875 99.1640625 C-125.56616467 92.25078219 -122.36527995 87.78103542 -116.25 83.875 C-102.10289675 77.22027709 -82.26459873 78.79860453 -66.9453125 78.82421875 C-65.47598518 78.8256765 -65.47598518 78.8256765 -63.97697449 78.8271637 C-50.83726556 78.8598755 -37.70008649 79.08985135 -24.5625 79.3125 C-23.20937223 79.33486657 -21.85624314 79.35715387 -20.50311279 79.37936401 C3.58361498 79.77535612 27.66743799 80.27649618 51.75 80.875 C38.92558997 71.17980081 25.55114012 62.40934992 12.08276367 53.64160156 C2.17771649 47.18626376 -7.69083449 40.6926751 -17.32421875 33.8359375 C-18.05534378 33.32261871 -18.78646881 32.80929993 -19.53974915 32.28042603 C-25.32294823 28.1068318 -31.22186961 23.13428239 -32.65625 15.796875 C-32.89972122 10.15645833 -31.59494022 7.03278029 -28.1484375 2.6015625 C-20.35408612 -4.48712744 -9.25967363 -3.70865482 0 0 Z " fill="#000000" transform="translate(350.25,161.125)"/>
<path d="M0 0 C3.21779815 2.87276618 4.19944969 5.10234352 4.81640625 9.40234375 C5.42531767 21.91395107 2.09021029 33.84166523 -5.69921875 43.80859375 C-12.46252052 50.00408101 -17.1235922 51.17015275 -26.265625 51.0859375 C-30.8557105 50.71517974 -32.50882421 50.08521517 -35.69921875 46.80859375 C-38.99084873 41.61672327 -39.2094003 37.20823482 -39.13671875 31.24609375 C-39.12697021 30.36002441 -39.11722168 29.47395508 -39.10717773 28.56103516 C-38.79866207 17.05496946 -36.4187606 8.12930691 -28.125 -0.21875 C-19.37524963 -7.33408645 -8.91649269 -6.25179372 0 0 Z " fill="#000000" transform="translate(138.69921875,247.19140625)"/>
<path d="M0 0 C4.88258329 2.43604155 6.73438288 5.59016121 8.94140625 10.34375 C11.72879449 18.68720741 11.03281147 30.2929764 7.26953125 38.1640625 C3.63646094 44.12657201 -1.15877667 50.20841009 -8.05859375 52.34375 C-13.37746825 53.08916891 -17.60484597 53.03097622 -22.49609375 50.71875 C-27.84501992 45.76120867 -30.65511746 40.30344753 -31.39453125 33.046875 C-31.53511072 20.61965006 -28.81223407 13.65208554 -20.47265625 4.47265625 C-14.4683065 -0.82244183 -7.67278782 -2.44597411 0 0 Z " fill="#000000" transform="translate(67.05859375,249.65625)"/>
<path d="M0 0 C4.77351686 3.94092671 6.77094914 8.99130485 7.39453125 15.0859375 C7.53436063 17.3311979 7.60008719 19.56309139 7.625 21.8125 C7.63523193 22.5334082 7.64546387 23.25431641 7.65600586 23.99707031 C7.5524871 30.26031723 5.97335394 34.27664606 1.5625 38.6875 C-4.99523144 43.69463484 -12.52524576 46.40551549 -20.8125 46.0625 C-24.7261474 45.21852642 -27.31188959 43.57664042 -30.125 40.6875 C-34.81293024 33.39516406 -34.84811843 25.59587728 -33.27734375 17.203125 C-31.11018396 9.38713888 -27.57833967 3.74654285 -20.8125 -0.9375 C-14.05826832 -3.82197104 -6.36882975 -3.83762819 0 0 Z " fill="#000000" transform="translate(199.8125,246.9375)"/>
</svg>
