<svg width="202" height="140" viewBox="0 0 202 140" fill="none" xmlns="http://www.w3.org/2000/svg">
<path fill-rule="evenodd" clip-rule="evenodd" d="M131.777 139.091H134.434V101.886H169.425V134.913C169.425 137.221 171.296 139.091 173.603 139.091H197.822C200.129 139.091 202 137.221 202 134.913V4.17807C202 1.87059 200.129 0 197.822 0H91.1886C40.8265 0 0 40.8265 0 91.1886V134.913C0 137.221 1.87058 139.091 4.17807 139.091H17.7534C20.0608 139.091 21.9314 137.221 21.9314 134.913V101.886H56.9224V139.091H59.5799V101.886H94.5708V139.091H96.7858V101.886H131.777V139.091ZM95.6783 24.8171C105.363 24.8171 114.953 26.7246 123.9 30.4308C132.848 34.1369 140.977 39.5692 147.825 46.4172C154.673 53.2651 160.106 61.3948 163.812 70.3421C167.518 79.2895 169.425 88.8795 169.425 98.564H156.517C156.517 90.5746 154.943 82.6634 151.886 75.2822C148.828 67.901 144.347 61.1943 138.697 55.5449C133.048 49.8956 126.341 45.4137 118.96 42.3563C111.579 39.2989 103.668 37.7256 95.6783 37.7256C87.689 37.7256 79.7777 39.2989 72.3965 42.3563C65.0152 45.4137 58.3086 49.8956 52.6592 55.5449C47.0099 61.1943 42.5286 67.901 39.4712 75.2822C36.4138 82.6634 34.8399 90.5746 34.8399 98.564H21.9314C21.9314 88.8795 23.8389 79.2895 27.545 70.3421C31.2512 61.3948 36.6835 53.2651 43.5315 46.4172C50.3794 39.5692 58.5091 34.1369 67.4564 30.4308C76.4038 26.7246 85.9938 24.8171 95.6783 24.8171ZM132.857 61.3857C123.055 51.5841 109.761 46.0773 95.8998 46.0773C82.0383 46.0773 68.7446 51.5841 58.943 61.3857C49.1414 71.1873 43.6346 84.481 43.6346 98.3425H56.5431C56.5431 87.9046 60.69 77.8942 68.0707 70.5134C75.4515 63.1327 85.4618 58.9858 95.8998 58.9858C106.338 58.9858 116.348 63.1327 123.729 70.5134C131.11 77.8942 135.256 87.9046 135.256 98.3425H148.165C148.165 84.481 142.658 71.1873 132.857 61.3857ZM93.3326 72.72L89.3444 73.1434L85.9943 77.5395V79.9818L88.5467 82.8475L91.4821 82.2288L93.7155 82.6846L93.237 84.4431L94.7684 87.2762L94.0027 89.2626L95.8103 94.6514L98.2462 94.2449L100.48 91.6723L100.671 89.8813L102.107 88.7741L101.82 85.5503L105.617 80.5894L103.255 80.9262L99.65 74.5111L93.9707 74.1203L93.3326 72.72ZM176.27 12.9782C175.663 12.6563 174.953 12.4953 174.141 12.4953H171.255V20.2H174.141C174.946 20.2 175.652 20.039 176.259 19.7171C176.874 19.3951 177.346 18.9415 177.675 18.3561C178.012 17.7708 178.18 17.1013 178.18 16.3477C178.18 15.5867 178.012 14.9172 177.675 14.3392C177.346 13.7538 176.878 13.3002 176.27 12.9782ZM174.02 18.5756C174.73 18.5756 175.283 18.3818 175.678 17.994C176.073 17.6062 176.27 17.0574 176.27 16.3477C176.27 15.6379 176.073 15.0855 175.678 14.6904C175.283 14.2953 174.73 14.0977 174.02 14.0977H173.131V18.5756H174.02ZM169.895 12.4953V20.2H168.018V12.4953H169.895ZM163.185 17.2915L164.787 20.2H166.905L165.127 17.1489C165.691 16.9806 166.115 16.6952 166.401 16.2928C166.693 15.8904 166.84 15.433 166.84 14.9209C166.84 14.4672 166.733 14.0575 166.521 13.6916C166.309 13.3185 165.987 13.0258 165.555 12.8136C165.131 12.6014 164.615 12.4953 164.008 12.4953H160.858V20.2H162.735V17.2915H163.185ZM162.735 15.9635H163.898C164.242 15.9635 164.498 15.8794 164.666 15.7111C164.842 15.5428 164.93 15.305 164.93 14.9977C164.93 14.705 164.842 14.4745 164.666 14.3062C164.498 14.138 164.242 14.0538 163.898 14.0538H162.735V15.9635ZM158.288 16.2489C158.734 16.344 159.093 16.5672 159.363 16.9184C159.634 17.2623 159.77 17.6574 159.77 18.1037C159.77 18.7476 159.543 19.2598 159.089 19.6403C158.643 20.0134 158.017 20.2 157.212 20.2H153.623V12.4953H157.092C157.874 12.4953 158.485 12.6746 158.924 13.0331C159.371 13.3916 159.594 13.8782 159.594 14.4928C159.594 14.9465 159.473 15.3233 159.232 15.6233C158.998 15.9233 158.683 16.1318 158.288 16.2489ZM156.729 15.6123H155.5V13.9989H156.729C157.037 13.9989 157.271 14.0684 157.432 14.2075C157.6 14.3465 157.684 14.5477 157.684 14.8111C157.684 15.0745 157.6 15.2757 157.432 15.4148C157.271 15.5465 157.037 15.6123 156.729 15.6123ZM157.607 18.4769C157.439 18.6159 157.198 18.6854 156.883 18.6854H155.5V16.9842H156.861C157.176 16.9842 157.421 17.0611 157.596 17.2147C157.779 17.3684 157.871 17.5806 157.871 17.8513C157.871 18.122 157.783 18.3305 157.607 18.4769ZM154.359 31.1657L154.973 29.4645H158.31L158.924 31.1657H159.978L157.223 23.5598H156.071L153.305 31.1657H154.359ZM158.024 28.6524L156.642 24.789L155.259 28.6524H158.024ZM165.508 23.5159V24.3281H162.182V26.9073H164.882V27.7195H162.182V31.1657H161.183V23.5159H165.508ZM168.92 28.0377L170.742 31.1657H171.938L170.018 27.9609C170.625 27.8292 171.079 27.5621 171.379 27.1597C171.686 26.7573 171.839 26.2927 171.839 25.7658C171.839 25.3341 171.741 24.95 171.543 24.6134C171.346 24.2769 171.046 24.0098 170.643 23.8122C170.248 23.6147 169.761 23.5159 169.183 23.5159H166.714V31.1657H167.713V28.0377H168.92ZM167.713 27.2365H169.183C169.725 27.2365 170.131 27.1048 170.402 26.8414C170.672 26.5707 170.808 26.2122 170.808 25.7658C170.808 25.3122 170.672 24.961 170.402 24.7122C170.138 24.4634 169.732 24.3391 169.183 24.3391H167.713V27.2365ZM174.39 23.5159V31.1657H173.391V23.5159H174.39ZM176.224 25.3268C175.887 25.9195 175.719 26.589 175.719 27.3353C175.719 28.0816 175.887 28.7511 176.224 29.3438C176.561 29.9365 177.018 30.4011 177.596 30.7377C178.181 31.0669 178.829 31.2316 179.539 31.2316C180.373 31.2316 181.101 31.034 181.723 30.6389C182.345 30.2365 182.798 29.6694 183.084 28.9377H181.887C181.675 29.3987 181.368 29.7536 180.965 30.0023C180.57 30.2438 180.095 30.3645 179.539 30.3645C179.004 30.3645 178.525 30.2401 178.101 29.9914C177.676 29.7426 177.344 29.3914 177.102 28.9377C176.861 28.4768 176.74 27.9426 176.74 27.3353C176.74 26.7207 176.861 26.1866 177.102 25.7329C177.344 25.272 177.676 24.9171 178.101 24.6683C178.525 24.4195 179.004 24.2952 179.539 24.2952C180.095 24.2952 180.57 24.4195 180.965 24.6683C181.368 24.9171 181.675 25.272 181.887 25.7329H183.084C182.798 24.9939 182.345 24.4232 181.723 24.0208C181.101 23.6183 180.373 23.4171 179.539 23.4171C178.829 23.4171 178.181 23.5854 177.596 23.922C177.018 24.2586 176.561 24.7269 176.224 25.3268ZM185.756 29.4645L185.141 31.1657H184.087L186.853 23.5598H188.006L190.76 31.1657H189.707L189.092 29.4645H185.756ZM187.424 24.789L188.807 28.6524H186.041L187.424 24.789ZM189.466 15.5574V13.9989H192.308V12.4953H187.589V20.2H192.308V18.6964H189.466V17.0062H191.979V15.5574H189.466ZM184.343 14.9318C184.204 14.6757 184.003 14.4819 183.74 14.3501C183.484 14.2111 183.18 14.1416 182.829 14.1416C182.221 14.1416 181.735 14.3428 181.369 14.7453C181.003 15.1404 180.82 15.6708 180.82 16.3367C180.82 17.0464 181.011 17.6025 181.391 18.0049C181.779 18.4 182.309 18.5976 182.982 18.5976C183.443 18.5976 183.831 18.4805 184.146 18.2464C184.468 18.0122 184.702 17.6757 184.848 17.2367H182.467V15.8538H186.549V17.5988C186.41 18.0671 186.173 18.5025 185.836 18.9049C185.507 19.3073 185.086 19.6329 184.574 19.8817C184.062 20.1305 183.484 20.2549 182.84 20.2549C182.079 20.2549 181.398 20.0902 180.798 19.761C180.206 19.4244 179.741 18.9598 179.404 18.3671C179.075 17.7745 178.911 17.0976 178.911 16.3367C178.911 15.5757 179.075 14.8989 179.404 14.3062C179.741 13.7063 180.206 13.2416 180.798 12.9124C181.391 12.5758 182.068 12.4075 182.829 12.4075C183.751 12.4075 184.526 12.6307 185.156 13.077C185.792 13.5233 186.213 14.1416 186.418 14.9318H184.343Z" fill="#0A2342"/>
<path fill-rule="evenodd" clip-rule="evenodd" d="M104.142 88.5149L104.796 87.5477L104.684 89.4129L103.691 91.8307L102.901 91.6234C102.961 90.3007 102.995 89.6656 103.533 88.5379L104.142 88.5149Z" fill="#0A2342"/>
</svg>
