<svg width="550" height="141" viewBox="0 0 550 141" fill="none" xmlns="http://www.w3.org/2000/svg">
<path fill-rule="evenodd" clip-rule="evenodd" d="M132.902 140.638H135.582V103.115H170.871V137.76C170.871 139.35 172.16 140.638 173.749 140.638H200.847C202.436 140.638 203.724 139.35 203.724 137.76V3.23693C203.724 1.6477 202.436 0.359375 200.847 0.359375H91.9669C41.175 0.359375 0 41.5343 0 92.3262V137.76C0 139.35 1.28832 140.638 2.87755 140.638H19.2411C20.8303 140.638 22.1186 139.35 22.1186 137.76V103.115H57.4082V140.638H60.0884V103.115H95.378V140.638H97.6119V103.115H132.902V140.638ZM96.495 25.3883C106.262 25.3883 115.934 27.3121 124.958 31.0499C133.981 34.7876 142.181 40.2663 149.087 47.1727C155.993 54.0791 161.472 62.2782 165.21 71.3018C168.948 80.3256 170.871 89.9974 170.871 99.7647H157.853C157.853 91.7071 156.265 83.7283 153.182 76.2841C150.098 68.8399 145.579 62.0759 139.881 56.3784C134.184 50.6808 127.42 46.1607 119.976 43.0772C112.531 39.9937 104.553 38.407 96.495 38.407C88.4374 38.407 80.4586 39.9937 73.0144 43.0772C65.5701 46.1607 58.8062 50.6808 53.1087 56.3784C47.4111 62.0759 42.8915 68.8399 39.808 76.2841C36.7245 83.7283 35.1373 91.7071 35.1373 99.7647H22.1186C22.1186 89.9974 24.0424 80.3256 27.7801 71.3018C31.5179 62.2782 36.9966 54.0791 43.903 47.1727C50.8094 40.2663 59.0085 34.7876 68.0321 31.0499C77.0559 27.3121 86.7277 25.3883 96.495 25.3883ZM133.991 62.269C124.105 52.3837 110.698 46.83 96.7183 46.8299C82.7385 46.8299 69.3313 52.3837 59.446 62.269C49.5608 72.1542 44.007 85.5614 44.007 99.5413H57.0257C57.0257 89.0142 61.208 78.9184 68.6517 71.4746C76.0955 64.0309 86.1913 59.8486 96.7183 59.8486C107.245 59.8486 117.341 64.0309 124.785 71.4746C132.229 78.9184 136.41 89.0142 136.41 99.5413H149.429C149.429 85.5615 143.876 72.1542 133.991 62.269ZM94.1292 73.7L90.107 74.127L86.7282 78.5606V81.0239L89.3025 83.9139L92.2629 83.29L94.5154 83.7497L94.0327 85.5232L95.5772 88.3804L94.805 90.3838L96.628 95.8186L99.0847 95.4086L101.337 92.8141L101.53 91.0078L102.978 89.8912L102.689 86.6398L106.519 81.6366L104.137 81.9762L100.501 75.5064L94.7728 75.1123L94.1292 73.7Z" fill="#F6BE00"/>
<path fill-rule="evenodd" clip-rule="evenodd" d="M105.031 89.6298L105.691 88.6543L105.577 90.5354L104.576 92.9739L103.779 92.7648C103.839 91.4308 103.874 90.7903 104.417 89.653L105.031 89.6298Z" fill="#F6BE00"/>
<path d="M253.617 34.1227C256.653 34.7697 259.092 36.2878 260.933 38.6769C262.775 41.0162 263.696 43.704 263.696 46.7401C263.696 51.1201 262.153 54.6042 259.067 57.1924C256.031 59.7308 251.775 61 246.3 61H221.887V8.58924H245.479C250.805 8.58924 254.961 9.80868 257.947 12.2475C260.983 14.6864 262.501 17.9963 262.501 22.1772C262.501 25.2631 261.68 27.8264 260.038 29.8671C258.445 31.9078 256.305 33.3263 253.617 34.1227ZM234.653 29.7925H243.015C245.106 29.7925 246.698 29.3445 247.793 28.4486C248.938 27.5029 249.511 26.1342 249.511 24.3423C249.511 22.5505 248.938 21.1818 247.793 20.2361C246.698 19.2904 245.106 18.8176 243.015 18.8176H234.653V29.7925ZM244.06 50.697C246.201 50.697 247.843 50.2242 248.988 49.2785C250.183 48.2831 250.78 46.8645 250.78 45.0229C250.78 43.1813 250.158 41.7379 248.913 40.6927C247.719 39.6475 246.051 39.1249 243.911 39.1249H234.653V50.697H244.06ZM309.774 61L298.874 41.2153H295.813V61H283.046V8.58924H304.473C308.604 8.58924 312.113 9.31095 315 10.7544C317.937 12.1978 320.127 14.1887 321.57 16.7271C323.014 19.2157 323.735 22.003 323.735 25.0889C323.735 28.573 322.74 31.6838 320.749 34.4213C318.808 37.1588 315.921 39.1 312.088 40.2447L324.183 61H309.774ZM295.813 32.1816H303.727C306.066 32.1816 307.808 31.6092 308.953 30.4644C310.147 29.3196 310.745 27.702 310.745 25.6115C310.745 23.6206 310.147 22.0528 308.953 20.908C307.808 19.7632 306.066 19.1909 303.727 19.1909H295.813V32.1816ZM356.462 8.58924V61H343.695V8.58924H356.462ZM397.294 8.58924C402.819 8.58924 407.647 9.68424 411.778 11.8742C415.909 14.0643 419.095 17.1502 421.335 21.132C423.624 25.064 424.769 29.6183 424.769 34.7946C424.769 39.9212 423.624 44.4754 421.335 48.4573C419.095 52.4391 415.885 55.525 411.704 57.715C407.572 59.905 402.769 61 397.294 61H377.659V8.58924H397.294ZM396.473 49.9504C401.301 49.9504 405.059 48.6315 407.747 45.9935C410.434 43.3555 411.778 39.6226 411.778 34.7946C411.778 29.9667 410.434 26.2088 407.747 23.5211C405.059 20.8333 401.301 19.4895 396.473 19.4895H390.426V49.9504H396.473ZM478.64 25.1636C477.695 23.4215 476.326 22.1026 474.534 21.2066C472.792 20.261 470.726 19.7881 468.337 19.7881C464.206 19.7881 460.896 21.1569 458.408 23.8944C455.919 26.5821 454.675 30.1906 454.675 34.72C454.675 39.5479 455.969 43.3307 458.557 46.0682C461.195 48.7559 464.803 50.0998 469.383 50.0998C472.518 50.0998 475.156 49.3034 477.296 47.7107C479.486 46.1179 481.079 43.8284 482.075 40.842H465.874V31.435H493.647V43.3058C492.701 46.4912 491.083 49.4527 488.794 52.1902C486.554 54.9277 483.692 57.1426 480.208 58.8349C476.724 60.5272 472.792 61.3733 468.412 61.3733C463.236 61.3733 458.607 60.2534 454.525 58.0136C450.494 55.7241 447.333 52.5635 445.044 48.5319C442.804 44.5003 441.684 39.8963 441.684 34.72C441.684 29.5436 442.804 24.9396 445.044 20.908C447.333 16.8266 450.494 13.6661 454.525 11.4263C458.557 9.13674 463.161 7.99197 468.337 7.99197C474.609 7.99197 479.885 9.51004 484.165 12.5462C488.495 15.5823 491.357 19.7881 492.751 25.1636H478.64ZM525.431 18.8176V29.4192H542.528V39.2742H525.431V50.7717H544.767V61H512.664V8.58924H544.767V18.8176H525.431ZM253.766 119.428H231.07L226.889 131H219.722L238.536 79.2612H246.375L265.114 131H257.947L253.766 119.428ZM251.825 113.903L242.418 87.623L233.011 113.903H251.825ZM314.675 78.9625V84.4873H292.053V102.032H310.42V107.557H292.053V131H285.26V78.9625H314.675ZM362.226 131L349.833 109.722H341.62V131H334.826V78.9625H351.625C355.557 78.9625 358.866 79.6345 361.554 80.9783C364.292 82.3222 366.332 84.1389 367.676 86.4285C369.02 88.718 369.692 91.3311 369.692 94.2677C369.692 97.8513 368.647 101.012 366.556 103.749C364.516 106.487 361.43 108.304 357.299 109.2L370.364 131H362.226ZM341.62 104.272H351.625C355.308 104.272 358.07 103.376 359.912 101.584C361.753 99.7427 362.674 97.3038 362.674 94.2677C362.674 91.1818 361.753 88.7927 359.912 87.1004C358.12 85.4081 355.357 84.562 351.625 84.562H341.62V104.272ZM398.988 78.9625V131H392.194V78.9625H398.988ZM419.974 104.944C419.974 99.8671 421.119 95.3129 423.409 91.2813C425.698 87.1999 428.809 84.0145 432.741 81.7249C436.723 79.4354 441.128 78.2906 445.956 78.2906C451.63 78.2906 456.582 79.6594 460.813 82.3969C465.044 85.1344 468.13 89.0166 470.071 94.0437H461.933C460.49 90.908 458.399 88.494 455.662 86.8018C452.974 85.1095 449.739 84.2633 445.956 84.2633C442.322 84.2633 439.062 85.1095 436.175 86.8018C433.289 88.494 431.024 90.908 429.382 94.0437C427.739 97.1296 426.918 100.763 426.918 104.944C426.918 109.075 427.739 112.708 429.382 115.844C431.024 118.93 433.289 121.319 436.175 123.011C439.062 124.704 442.322 125.55 445.956 125.55C449.739 125.55 452.974 124.729 455.662 123.086C458.399 121.394 460.49 118.98 461.933 115.844H470.071C468.13 120.821 465.044 124.679 460.813 127.416C456.582 130.104 451.63 131.448 445.956 131.448C441.128 131.448 436.723 130.328 432.741 128.088C428.809 125.799 425.698 122.638 423.409 118.607C421.119 114.575 419.974 110.021 419.974 104.944ZM522.889 119.428H500.193L496.012 131H488.845L507.659 79.2612H515.498L534.237 131H527.07L522.889 119.428ZM520.948 113.903L511.541 87.623L502.134 113.903H520.948Z" fill="#F6BE00"/>
</svg>
